<svg width="22" height="28" viewBox="0 0 22 28" fill="none" xmlns="http://www.w3.org/2000/svg">
<path id="Vector" d="M18.9381 8.68518H20C21.1046 8.68518 22 9.79618 22 11.1667V16.1296C22 17.5002 21.1046 18.6111 20 18.6111H18.9381C18.446 23.5074 15.0796 27.2963 11 27.2963V24.8148C14.3137 24.8148 17 21.4818 17 17.3704V9.92593C17 5.81447 14.3137 2.48148 11 2.48148C7.68629 2.48148 5 5.81447 5 9.92593V18.6111H2C0.89543 18.6111 0 17.5002 0 16.1296V11.1667C0 9.79618 0.89543 8.68518 2 8.68518H3.06189C3.55399 3.78884 6.92038 0 11 0C15.0796 0 18.446 3.78884 18.9381 8.68518ZM2 11.1667V16.1296H3V11.1667H2ZM19 11.1667V16.1296H20V11.1667H19ZM6.75944 18.3442L7.81958 16.2397C8.74161 16.9562 9.8318 17.3704 11 17.3704C12.1682 17.3704 13.2584 16.9562 14.1804 16.2397L15.2406 18.3442C14.0112 19.2996 12.5576 19.8519 11 19.8519C9.4424 19.8519 7.98882 19.2996 6.75944 18.3442Z" fill="white"/>
</svg>
