<svg width="30" height="30" viewBox="0 0 30 30" fill="none" xmlns="http://www.w3.org/2000/svg">
<g id="vaadin:cloud-download">
<path id="Vector" d="M26.25 18.75H26.0625C26.0625 18.1875 26.25 17.625 26.25 16.875C26.25 12.75 22.875 9.375 18.75 9.375V1.875H11.25V7.6875C10.875 7.5 10.6875 7.5 10.3125 7.5C7.6875 7.5 5.625 9.5625 5.625 12.1875C5.625 13.3125 6 14.25 6.75 15.1875C6.375 15 6 15 5.625 15C2.4375 15 0 17.4375 0 20.625C0 23.8125 2.4375 26.25 5.625 26.25H26.25C28.3125 26.25 30 24.5625 30 22.5C30 20.4375 28.3125 18.75 26.25 18.75ZM15 21.375L9.5625 15H13.125V3.75H16.875V15H20.4375L15 21.375Z" fill="#FF8B67"/>
</g>
</svg>
